<svg id="visual" viewBox="0 0 3000 2100" width="3000" height="2100" xmlns="http://www.w3.org/2000/svg" xmlns:xlink="http://www.w3.org/1999/xlink" version="1.1"><rect x="0" y="0" width="3000" height="2100" fill="#9ED1FE"></rect><defs><linearGradient id="grad1_0" x1="30%" y1="0%" x2="100%" y2="100%"><stop offset="21.42857142857143%" stop-color="#ffaff8" stop-opacity="1"></stop><stop offset="78.57142857142858%" stop-color="#ffaff8" stop-opacity="1"></stop></linearGradient></defs><defs><linearGradient id="grad1_1" x1="30%" y1="0%" x2="100%" y2="100%"><stop offset="21.42857142857143%" stop-color="#ffaff8" stop-opacity="1"></stop><stop offset="78.57142857142858%" stop-color="#9ed1fe" stop-opacity="1"></stop></linearGradient></defs><defs><linearGradient id="grad2_0" x1="0%" y1="0%" x2="70%" y2="100%"><stop offset="21.42857142857143%" stop-color="#ffaff8" stop-opacity="1"></stop><stop offset="78.57142857142858%" stop-color="#ffaff8" stop-opacity="1"></stop></linearGradient></defs><defs><linearGradient id="grad2_1" x1="0%" y1="0%" x2="70%" y2="100%"><stop offset="21.42857142857143%" stop-color="#9ed1fe" stop-opacity="1"></stop><stop offset="78.57142857142858%" stop-color="#ffaff8" stop-opacity="1"></stop></linearGradient></defs><g transform="translate(3000, 0)"><path d="M0 1464.8C-160.7 1465.1 -321.3 1465.3 -452.6 1393.1C-584 1320.9 -686 1176.1 -764.1 1051.7C-842.3 927.3 -896.6 823.3 -1009.7 733.6C-1122.7 643.8 -1294.3 568.3 -1380 448.4C-1465.6 328.5 -1465.2 164.2 -1464.8 0L0 0Z" fill="#c4c4ff"></path><path d="M0 732.4C-80.3 732.5 -160.7 732.7 -226.3 696.5C-292 660.4 -343 588.1 -382.1 525.9C-421.1 463.7 -448.3 411.7 -504.8 366.8C-561.3 321.9 -647.2 284.1 -690 224.2C-732.8 164.2 -732.6 82.1 -732.4 0L0 0Z" fill="#ffaff8"></path></g><g transform="translate(0, 2100)"><path d="M0 -1464.8C156.3 -1445.7 312.7 -1426.6 444.1 -1366.7C575.4 -1306.7 681.9 -1205.9 817 -1124.5C952.2 -1043.1 1116 -981.2 1185 -861C1254.1 -740.8 1228.4 -562.3 1259.2 -409.1C1290 -255.9 1377.4 -128 1464.8 0L0 0Z" fill="#c4c4ff"></path><path d="M0 -732.4C78.2 -722.9 156.3 -713.3 222 -683.3C287.7 -653.4 340.9 -603 408.5 -562.3C476.1 -521.6 558 -490.6 592.5 -430.5C627 -370.4 614.2 -281.2 629.6 -204.6C645 -128 688.7 -64 732.4 0L0 0Z" fill="#ffaff8"></path></g></svg>