<svg id="visual" viewBox="0 0 3000 2100" width="3000" height="2100" xmlns="http://www.w3.org/2000/svg" xmlns:xlink="http://www.w3.org/1999/xlink" version="1.1"><rect width="3000" height="2100" fill="#9ED1FE"></rect><g><g transform="translate(1315 1424)"><path d="M0 -502.1L434.8 -251L434.8 251L0 502.1L-434.8 251L-434.8 -251Z" fill="#ecdaFF"></path></g><g transform="translate(2904 831)"><path d="M0 -489L423.5 -244.5L423.5 244.5L0 489L-423.5 244.5L-423.5 -244.5Z" fill="#ecdaFF"></path></g><g transform="translate(229 447)"><path d="M0 -305L264.1 -152.5L264.1 152.5L0 305L-264.1 152.5L-264.1 -152.5Z" fill="#ecdaFF"></path></g><g transform="translate(1889 85)"><path d="M0 -279L241.6 -139.5L241.6 139.5L0 279L-241.6 139.5L-241.6 -139.5Z" fill="#ecdaFF"></path></g><g transform="translate(116 1692)"><path d="M0 -391L338.6 -195.5L338.6 195.5L0 391L-338.6 195.5L-338.6 -195.5Z" fill="#ecdaFF"></path></g><g transform="translate(2768 2029)"><path d="M0 -322L278.9 -161L278.9 161L0 322L-278.9 161L-278.9 -161Z" fill="#ecdaFF"></path></g></g></svg>